<svg width="500" height="500" viewBox="0 0 500 500" fill="none" xmlns="http://www.w3.org/2000/svg">
<rect width="500" height="500" fill="white"/>
<path fill-rule="evenodd" clip-rule="evenodd" d="M113.13 243.409C113.13 254.353 104.265 263.23 93.3138 263.23C82.3725 263.23 73.4979 254.353 73.4979 243.409C73.4979 232.466 82.3725 223.598 93.3138 223.598C104.265 223.598 113.13 232.466 113.13 243.409ZM428.042 243.409C428.042 254.353 419.167 263.23 408.231 263.23C397.285 263.23 388.41 254.353 388.41 243.409C388.41 232.466 397.285 223.598 408.231 223.598C419.167 223.598 428.042 232.466 428.042 243.409ZM270.586 321.604C270.586 332.546 261.712 341.423 250.772 341.423C239.827 341.423 230.954 332.546 230.954 321.604C230.954 310.662 239.827 301.791 250.772 301.791C261.712 301.791 270.586 310.662 270.586 321.604ZM191.322 283.046C191.322 293.985 182.453 302.862 171.504 302.862C160.559 302.862 151.69 293.985 151.69 283.046C151.69 272.098 160.559 263.23 171.504 263.23C182.453 263.23 191.322 272.098 191.322 283.046ZM348.778 283.046C348.778 293.985 339.905 302.862 328.965 302.862C318.015 302.862 309.146 293.985 309.146 283.046C309.146 272.098 318.015 263.23 328.965 263.23C339.905 263.23 348.778 272.098 348.778 283.046ZM106.703 303.402C106.703 310.784 100.714 316.787 93.321 316.787C85.9188 316.787 79.9247 310.784 79.9247 303.402C79.9247 296.001 85.9188 290.008 93.321 290.008C100.714 290.008 106.703 296.001 106.703 303.402ZM421.615 303.402C421.615 310.784 415.617 316.787 408.226 316.787C400.83 316.787 394.837 310.784 394.837 303.402C394.837 296.001 400.83 290.008 408.226 290.008C415.617 290.008 421.615 296.001 421.615 303.402ZM264.159 382.651C264.159 390.048 258.158 396.05 250.775 396.05C243.386 396.05 237.381 390.048 237.381 382.651C237.381 375.26 243.386 369.272 250.775 369.272C258.158 369.272 264.159 375.26 264.159 382.651ZM184.895 343.034C184.895 350.428 178.902 356.418 171.511 356.418C164.115 356.418 158.117 350.428 158.117 343.034C158.117 335.635 164.115 329.64 171.511 329.64C178.902 329.64 184.895 335.635 184.895 343.034ZM342.351 343.034C342.351 350.428 336.35 356.418 328.97 356.418C321.57 356.418 315.573 350.428 315.573 343.034C315.573 335.635 321.57 329.64 328.97 329.64C336.35 329.64 342.351 335.635 342.351 343.034ZM100.276 350.52C100.276 354.372 97.161 357.49 93.3163 357.49C89.4667 357.49 86.3515 354.372 86.3515 350.52C86.3515 346.677 89.4667 343.565 93.3163 343.565C97.161 343.565 100.276 346.677 100.276 350.52ZM415.188 350.52C415.188 354.372 412.066 357.49 408.228 357.49C404.376 357.49 401.264 354.372 401.264 350.52C401.264 346.677 404.376 343.565 408.228 343.565C412.066 343.565 415.188 346.677 415.188 350.52ZM257.732 429.786C257.732 433.632 254.61 436.753 250.772 436.753C246.925 436.753 243.808 433.632 243.808 429.786C243.808 425.94 246.925 422.828 250.772 422.828C254.61 422.828 257.732 425.94 257.732 429.786ZM178.469 390.159C178.469 394 175.349 397.121 171.504 397.121C167.664 397.121 164.544 394 164.544 390.159C164.544 386.308 167.664 383.197 171.504 383.197C175.349 383.197 178.469 386.308 178.469 390.159ZM335.925 390.159C335.925 394 332.802 397.121 328.965 397.121C325.108 397.121 322 394 322 390.159C322 386.308 325.108 383.197 328.965 383.197C332.802 383.197 335.925 386.308 335.925 390.159ZM277.013 90.7787C277.013 105.571 265.022 117.556 250.242 117.556C235.447 117.556 223.456 105.571 223.456 90.7787C223.456 75.9902 235.447 64 250.242 64C265.022 64 277.013 75.9902 277.013 90.7787ZM277.013 170.042C277.013 184.832 265.022 196.82 250.242 196.82C235.447 196.82 223.456 184.832 223.456 170.042C223.456 155.256 235.447 143.264 250.242 143.264C265.022 143.264 277.013 155.256 277.013 170.042ZM277.013 248.239C277.013 263.023 265.022 275.013 250.242 275.013C235.447 275.013 223.456 263.023 223.456 248.239C223.456 233.446 235.447 221.456 250.242 221.456C265.022 221.456 277.013 233.446 277.013 248.239ZM434.469 170.042C434.469 184.832 422.48 196.82 407.693 196.82C392.901 196.82 380.912 184.832 380.912 170.042C380.912 155.256 392.901 143.264 407.693 143.264C422.48 143.264 434.469 155.256 434.469 170.042ZM119.556 170.042C119.556 184.832 107.57 196.82 92.7806 196.82C77.991 196.82 66 184.832 66 170.042C66 155.256 77.991 143.264 92.7806 143.264C107.57 143.264 119.556 155.256 119.556 170.042ZM198.82 130.41C198.82 145.198 186.833 157.188 172.042 157.188C157.251 157.188 145.264 145.198 145.264 130.41C145.264 115.612 157.251 103.632 172.042 103.632C186.833 103.632 198.82 115.612 198.82 130.41ZM198.82 208.6C198.82 223.39 186.833 235.381 172.042 235.381C157.251 235.381 145.264 223.39 145.264 208.6C145.264 193.815 157.251 181.824 172.042 181.824C186.833 181.824 198.82 193.815 198.82 208.6ZM356.276 130.41C356.276 145.198 344.285 157.188 329.496 157.188C314.706 157.188 302.72 145.198 302.72 130.41C302.72 115.612 314.706 103.632 329.496 103.632C344.285 103.632 356.276 115.612 356.276 130.41ZM356.276 208.6C356.276 223.39 344.285 235.381 329.496 235.381C314.706 235.381 302.72 223.39 302.72 208.6C302.72 193.815 314.706 181.824 329.496 181.824C344.285 181.824 356.276 193.815 356.276 208.6Z" fill="#141414"/>
</svg>
